<?xml version="1.0" standalone="no"?>
<!DOCTYPE svg PUBLIC "-//W3C//DTD SVG 20010904//EN"
 "http://www.w3.org/TR/2001/REC-SVG-20010904/DTD/svg10.dtd">
<svg version="1.0" xmlns="http://www.w3.org/2000/svg"
 width="772.000000pt" height="772.000000pt" viewBox="0 0 772.000000 772.000000"
 preserveAspectRatio="xMidYMid meet">
<metadata>
Created by potrace 1.14, written by Peter Selinger 2001-2017
</metadata>
<g transform="translate(0.000000,772.000000) scale(0.100000,-0.100000)"
fill="#000000" stroke="none">
<path d="M3815 6643 c-543 -17 -1056 -138 -1585 -375 l-55 -25 -1079 199
c-593 109 -1080 197 -1082 195 -4 -4 15 -4739 19 -4743 2 -2 426 57 942 130
517 73 941 129 943 126 1 -4 -35 -101 -82 -216 -139 -348 -280 -784 -258 -806
14 -14 127 -56 133 -50 3 4 47 129 97 279 89 265 208 590 274 749 l34 79 149
21 c83 11 169 23 192 26 l42 6 -14 -28 c-8 -16 -15 -50 -15 -75 0 -38 6 -52
34 -83 32 -34 39 -37 89 -37 60 0 93 17 131 68 28 38 28 116 -1 155 l-21 29
546 77 c301 42 552 76 559 76 8 0 4 -23 -13 -72 -72 -211 -150 -600 -179 -889
-7 -62 -10 -69 -49 -101 -122 -102 -166 -110 -187 -35 -13 49 -6 160 17 275
36 174 -12 324 -91 282 -66 -35 -130 -115 -202 -250 -50 -93 -74 -129 -78
-118 -4 10 2 78 13 153 26 179 16 223 -50 239 -20 4 -34 0 -53 -16 -22 -19
-30 -43 -50 -143 -13 -66 -31 -174 -39 -240 l-16 -120 -47 -43 c-119 -107
-205 -144 -269 -117 -27 11 -32 19 -37 61 -7 65 14 185 69 382 47 167 51 208
23 225 -24 15 -86 -1 -120 -31 -26 -24 -35 -48 -74 -202 -100 -402 -100 -518
1 -570 77 -40 236 -1 382 93 l72 47 0 -38 c0 -20 11 -55 23 -77 20 -35 27 -40
57 -38 23 1 42 10 55 26 11 13 74 123 140 245 66 122 124 222 129 222 5 0 6
-53 2 -123 -8 -137 4 -237 34 -298 22 -43 38 -53 92 -63 42 -8 122 24 198 78
l46 33 50 -25 c27 -14 85 -39 129 -55 71 -27 93 -31 190 -31 l110 -1 120 56
c66 31 136 62 155 69 19 7 59 26 88 42 46 26 52 28 52 11 1 -61 75 -152 147
-179 80 -31 199 3 292 83 48 40 46 41 83 -26 59 -107 207 -91 342 39 l62 60
17 -35 c25 -53 94 -123 128 -130 58 -13 208 40 331 115 26 16 50 30 52 30 2 0
20 -27 40 -59 68 -111 144 -128 294 -67 80 33 214 108 268 151 l27 22 -28 74
c-42 112 -39 111 -137 41 -81 -58 -140 -92 -184 -106 -18 -6 -25 0 -43 37 -44
90 -27 154 97 379 241 437 313 626 315 828 1 110 -11 155 -54 196 -27 26 -37
29 -93 29 -53 0 -69 -5 -113 -33 -63 -41 -110 -91 -170 -184 -95 -147 -187
-389 -239 -633 -25 -115 -28 -152 -29 -323 l-1 -193 -53 -35 c-71 -48 -144
-84 -170 -84 -27 0 -58 50 -67 108 -11 75 11 139 118 333 195 357 274 540 303
707 25 145 14 245 -35 293 l-27 27 66 10 c36 5 429 60 874 123 l807 113 -2
1125 -3 1126 -764 140 -764 140 -39 85 c-83 180 -249 388 -423 530 -227 186
-551 337 -910 426 -278 68 -675 107 -1000 97z m565 -198 c744 -84 1309 -387
1561 -839 l33 -59 -44 7 c-75 12 -3414 626 -3425 630 -5 2 -3 6 5 10 368 144
760 235 1151 266 155 12 555 4 719 -15z m-3596 -385 c88 -16 163 -33 167 -37
6 -8 63 -482 75 -628 3 -38 9 -104 15 -145 15 -122 46 -392 65 -573 9 -92 19
-165 21 -163 3 2 29 193 58 423 l54 418 73 68 c78 73 268 235 331 281 l37 28
0 -1601 0 -1601 -22 -5 c-28 -6 -277 -35 -301 -35 -16 0 -17 52 -18 798 l-1
797 -43 -270 c-24 -148 -69 -434 -100 -635 -32 -201 -61 -371 -64 -377 -4 -7
-51 267 -105 610 -55 342 -103 631 -108 642 -4 11 -6 -183 -3 -440 2 -253 6
-624 7 -825 l3 -364 -140 -22 c-77 -13 -153 -25 -170 -27 l-30 -5 -4 1865 -4
1864 24 -6 c13 -3 96 -19 183 -35z m705 -131 l124 -23 -34 -26 c-18 -14 -87
-70 -152 -125 -66 -55 -127 -106 -137 -113 -15 -11 -15 2 6 150 12 90 22 165
23 167 0 2 11 1 24 -2 12 -3 78 -16 146 -28z m711 -96 l95 -18 3 -1421 2
-1421 -94 -195 -94 -195 -58 -7 c-33 -4 -67 -9 -76 -12 -17 -5 -18 78 -18
1654 l0 1660 73 -14 c39 -8 115 -22 167 -31z m865 -139 c132 -25 241 -47 241
-47 1 -1 5 -116 9 -254 l8 -253 -205 0 c-145 0 -207 -3 -216 -12 -15 -15 -17
-635 -2 -658 7 -12 41 -16 165 -20 l157 -5 33 -37 c60 -65 59 -54 63 -753 3
-678 0 -729 -43 -814 -53 -105 -97 -123 -413 -166 -136 -19 -257 -35 -269 -35
l-23 0 0 249 c0 136 3 276 6 310 l7 61 186 0 c132 0 191 4 199 12 15 15 17
645 2 668 -7 12 -40 16 -157 20 -169 6 -188 13 -221 83 -37 79 -42 164 -42
754 0 563 4 647 36 744 36 113 122 199 198 199 23 0 149 -21 281 -46z m1024
-165 c146 -28 269 -53 272 -57 3 -4 4 -107 1 -229 l-4 -223 -203 0 c-154 0
-205 -3 -213 -13 -16 -18 -28 -533 -14 -568 l11 -27 148 -4 c182 -5 202 -13
241 -96 l27 -57 -3 -530 c-3 -561 -8 -655 -43 -735 -28 -66 -96 -126 -163
-145 -48 -14 -477 -75 -525 -75 l-22 0 3 291 3 292 192 -6 c142 -4 194 -3 201
6 6 7 12 129 14 293 2 219 0 284 -10 297 -10 12 -41 16 -150 19 -164 4 -193
15 -232 93 l-25 50 -3 545 c-2 371 1 570 8 625 22 149 70 238 153 280 28 14
55 25 61 25 5 0 129 -23 275 -51z m749 -115 l142 -28 -2 -1225 -3 -1225 -130
-17 c-71 -10 -147 -20 -167 -23 l-38 -6 0 1281 0 1282 28 -6 c15 -3 91 -18
170 -33z m866 -139 c260 -48 304 -61 349 -103 66 -62 62 4 65 -982 2 -622 -1
-908 -8 -939 -18 -73 -61 -124 -138 -164 -65 -34 -84 -39 -291 -67 -184 -25
-229 -29 -264 -19 -90 24 -147 96 -173 219 -12 61 -14 203 -12 968 3 997 0
951 71 1043 32 43 105 89 139 89 10 0 128 -20 262 -45z m819 -134 c82 -16 152
-33 156 -37 5 -5 32 -112 61 -239 29 -126 69 -302 90 -390 l38 -160 1 381 1
382 68 -13 c37 -7 122 -23 190 -35 l122 -22 0 -889 c0 -489 -2 -889 -4 -889
-2 0 -84 -12 -181 -26 -126 -18 -180 -22 -185 -15 -3 6 -47 179 -96 383 l-89
372 -3 -395 -2 -395 -151 -23 c-83 -12 -152 -21 -154 -19 -3 4 -16 2058 -12
2058 1 0 69 -13 150 -29z m-777 -2494 c-210 -206 -396 -775 -372 -1142 l6
-101 -37 -44 c-44 -51 -147 -120 -179 -120 -55 0 -61 97 -19 320 28 151 29
255 2 272 -6 4 -31 8 -54 8 -35 0 -48 6 -70 31 -27 30 -31 31 -88 26 -76 -6
-144 -39 -218 -107 -61 -56 -134 -158 -166 -233 -27 -63 -93 -120 -233 -201
l-47 -27 10 33 c36 115 41 147 37 243 -3 84 -8 108 -31 152 -46 89 -139 137
-223 114 -21 -6 -39 -9 -40 -8 -1 1 22 36 53 77 81 112 164 263 185 338 10 37
18 99 18 139 0 40 3 73 8 73 4 1 333 47 732 104 399 57 738 104 753 105 27 1
26 -1 -27 -52z m136 -216 c-24 -145 -107 -352 -240 -600 l-77 -144 -3 64 c-2
42 6 104 24 184 76 347 176 566 262 577 42 6 46 -5 34 -81z m525 12 c-11 -115
-99 -346 -220 -573 -64 -120 -67 -123 -67 -85 0 45 19 139 61 296 70 264 150
413 223 418 5 1 6 -25 3 -56z m-2264 20 c13 -22 -15 -140 -52 -225 -76 -172
-160 -312 -213 -352 l-48 -36 0 30 c0 79 105 500 135 544 11 15 33 24 83 32
88 15 90 15 95 7z m837 -748 c0 -36 -70 -336 -86 -366 -43 -86 -100 -128 -171
-129 -31 0 -32 1 -39 56 -9 77 0 158 26 227 30 80 104 175 159 204 51 27 111
31 111 8z m-882 -25 c55 -44 63 -90 38 -223 -17 -89 -46 -154 -87 -193 -26
-25 -38 -29 -83 -28 -29 1 -78 9 -110 18 l-58 17 6 117 c4 64 14 140 21 167
17 58 65 121 109 141 43 20 128 11 164 -16z"/>
<path d="M5585 4858 c-3 -7 -4 -330 -3 -718 l3 -705 90 0 90 0 0 715 0 715
-88 3 c-64 2 -89 -1 -92 -10z"/>
</g>
</svg>
